<svg width="697" height="809" viewBox="0 0 697 809" fill="none" xmlns="http://www.w3.org/2000/svg">
<path d="M639.733 572.51L630.842 573.495L621.935 574.986L612.976 576.105L604.077 577.645L595.133 578.847L586.234 580.413L577.257 581.39L568.339 582.787L559.373 583.847L550.41 584.944L541.522 586.577L532.578 587.795L523.559 588.484L514.627 589.802L505.672 590.948L496.78 592.536L487.825 593.682L478.937 595.304L469.933 596.106L461.016 597.525L452.038 598.499L443.158 600.181L434.146 600.933L425.262 602.578L416.344 604.001L407.374 605.046L398.445 606.375L389.516 607.701L380.587 609.046L371.632 610.177L362.61 610.859L353.711 612.409L344.778 613.72L335.883 615.282L326.883 616.121L317.976 617.627L308.998 618.597L300.122 620.304L291.148 621.323L282.234 622.765L273.256 623.754L264.35 625.271L255.331 625.964L246.402 627.286L237.529 629.012L228.518 629.765L219.619 631.297L210.645 632.316L201.686 633.432L192.817 635.196L183.862 636.331L174.907 637.477L165.929 638.481L157.034 640.035L148.064 641.095L139.172 642.687L130.138 643.282L121.206 644.604L112.262 645.822L103.318 647.05L94.3662 648.222L85.441 649.616L76.5644 651.342L67.5943 652.395L58.6803 653.837L49.6764 654.635L40.7437 655.972L31.8634 657.657L22.882 658.601L13.9606 660.02L4.97168 660.919L-3.99474 662.017L-12.9125 663.432L-21.7965 665.125L-30.7779 666.099L-39.7031 667.477L-48.722 668.582L-48.8867 659.534L-48.9879 650.533L-48.4523 641.533L-49.0366 632.533L-48.7407 623.533L-48.6995 614.533L-48.3212 605.533L-48.9392 596.533L-48.3324 587.533L-48.7969 578.532L-48.7557 569.532L-48.4036 560.532L-48.5834 551.532L-49.0216 542.532L-48.3362 533.532L-48.8755 524.532L-48.6321 515.535L-48.8268 506.535L-48.7182 497.535L-48.3212 488.539L-48.9954 479.539L-48.7107 470.538L-48.8942 461.538L-48.7969 452.538L-48.6321 443.538L-48.3324 434.538L-48.456 425.542L-48.4822 416.541L-48.9654 407.538L-48.6133 398.537L-48.9991 389.537L-48.7519 380.537L-48.8643 371.537L-48.9916 362.537L-48.471 353.537L-48.9467 344.537L-48.8231 335.533L-48.5534 326.533L-48.31 317.533L-48.9205 308.532L-48.441 299.529L-48.883 290.528L-48.707 281.528L-48.4897 272.528L-48.6396 263.528L-48.6845 254.524L-48.8455 245.52L-48.9392 236.52L-48.7294 227.516L-48.8905 218.325L-39.6994 217.434L-30.7891 215.883L-21.9014 214.198L-12.86 213.531L-3.95728 211.966L5.00165 210.748L13.8707 208.928L22.8408 207.797L31.826 206.759L40.7662 205.419L49.654 203.711L58.5717 202.239L67.5868 201.392L76.482 199.771L85.4709 198.737L94.4224 197.486L103.284 195.617L112.262 194.527L121.217 193.299L130.127 191.759L139.086 190.535L148.06 189.415L156.97 187.883L165.948 186.797L174.824 185.021L183.731 183.46L192.682 182.182L201.645 180.991L210.585 179.643L219.518 178.268L228.503 177.216L237.398 175.583L246.41 174.699L255.271 172.845L264.264 171.856L273.196 170.459L282.178 169.373L291.088 167.834L300.013 166.392L308.942 164.984L317.86 163.489L326.864 162.549L335.797 161.171L344.714 159.673L353.681 158.523L362.666 157.482L371.524 155.59L380.453 154.182L389.468 153.332L398.348 151.59L407.284 150.234L416.273 149.216L425.18 147.639L434.124 146.328L443.053 144.905L452.079 144.137L461.023 142.811L469.929 141.249L478.843 139.736L487.829 138.672L496.769 137.32L505.731 136.129L514.612 134.38L523.608 133.399L532.5 131.725L541.436 130.35L550.447 129.481L559.339 127.8L568.275 126.421L577.182 124.852L586.193 123.972L595.103 122.41L604.047 121.088L612.98 119.676L621.917 118.294L630.902 117.226L639.617 116.032L639.726 124.736L639.535 133.691L639.509 142.65L640.179 151.605L639.655 160.564L640.085 169.519L639.801 178.474L640.014 187.433L639.587 196.389L639.591 205.347L639.636 214.303L639.902 223.262L639.973 232.217L639.857 241.172L639.655 250.131L640.13 259.086L640.168 268.045L639.872 277L639.879 285.955L639.599 294.911L639.651 303.866L639.756 312.825L640.16 321.78L639.494 330.735L639.861 339.694L640.164 348.649L639.625 357.604L639.46 366.563L640.198 375.518L639.561 384.477L640.16 393.432L640.201 402.391L640.089 411.347L639.763 420.305L639.778 429.261L639.73 438.22L639.988 447.178L639.673 456.134L639.583 465.093L640.183 474.052L639.651 483.01L639.561 491.966L639.763 500.925V509.88L640.082 518.839L639.557 527.798L640.04 536.757L640.145 545.715L640.022 554.674L639.775 563.637L639.733 572.51Z" fill="#FFEAAF"/>
<path d="M360.707 78.5853L380.505 98.3796" stroke="#FFC32D" stroke-width="5" stroke-miterlimit="10"/>
<path d="M374.722 77.8999L359.827 77.7014L360.025 92.6005" stroke="#FFC32D" stroke-width="5" stroke-miterlimit="10"/>
<path d="M5.099 160.639L24.8933 180.437" stroke="#FFC32D" stroke-width="5" stroke-miterlimit="10"/>
<path d="M19.1104 159.954L4.21509 159.759L4.41359 174.654" stroke="#FFC32D" stroke-width="5" stroke-miterlimit="10"/>
<path d="M31.5975 569.806L51.3955 589.6" stroke="#FFC32D" stroke-width="5" stroke-miterlimit="10"/>
<path d="M45.6127 569.12L30.7136 568.922L30.9121 583.821" stroke="#FFC32D" stroke-width="5" stroke-miterlimit="10"/>
<path d="M84.8454 93.4807L104.643 113.279" stroke="#FFC32D" stroke-width="5" stroke-miterlimit="10"/>
<path d="M98.8606 92.7953L83.9653 92.6006L84.1638 107.496" stroke="#FFC32D" stroke-width="5" stroke-miterlimit="10"/>
<path d="M315.051 116.661L334.849 136.459" stroke="#FFC32D" stroke-width="5" stroke-miterlimit="10"/>
<path d="M329.066 115.979L314.167 115.781L314.366 130.676" stroke="#FFC32D" stroke-width="5" stroke-miterlimit="10"/>
<path d="M241.125 237.269L260.923 257.067" stroke="#FFC32D" stroke-width="5" stroke-miterlimit="10"/>
<path d="M255.14 236.588L240.241 236.389L240.439 251.284" stroke="#FFC32D" stroke-width="5" stroke-miterlimit="10"/>
<path d="M421.577 219.299L441.375 239.097" stroke="#FFC32D" stroke-width="5" stroke-miterlimit="10"/>
<path d="M435.592 218.617L420.697 218.415L420.895 233.314" stroke="#FFC32D" stroke-width="5" stroke-miterlimit="10"/>
<path d="M565.032 174.148L584.83 193.943" stroke="#FFC32D" stroke-width="5" stroke-miterlimit="10"/>
<path d="M579.047 173.463L564.152 173.265L564.35 188.16" stroke="#FFC32D" stroke-width="5" stroke-miterlimit="10"/>
<path d="M590.234 300.866L610.029 320.664" stroke="#FFC32D" stroke-width="5" stroke-miterlimit="10"/>
<path d="M604.25 300.184L589.351 299.985L589.549 314.881" stroke="#FFC32D" stroke-width="5" stroke-miterlimit="10"/>
<path d="M575.373 493.565L595.171 513.359" stroke="#FFC32D" stroke-width="5" stroke-miterlimit="10"/>
<path d="M589.388 492.88L574.489 492.681L574.687 507.58" stroke="#FFC32D" stroke-width="5" stroke-miterlimit="10"/>
<path d="M226.518 69.1283L246.316 88.9226" stroke="#FFC32D" stroke-width="5" stroke-miterlimit="10"/>
<path d="M240.533 68.4429L225.634 68.2444L225.832 83.1435" stroke="#FFC32D" stroke-width="5" stroke-miterlimit="10"/>
<path d="M544.354 93.9226L564.152 113.721" stroke="#FFC32D" stroke-width="5" stroke-miterlimit="10"/>
<path d="M558.369 93.2372L543.47 93.0387L543.672 107.938" stroke="#FFC32D" stroke-width="5" stroke-miterlimit="10"/>
<path d="M519.795 443.332H14.556V533.202H519.795V443.332Z" fill="#FFC32D"/>
<path d="M610.871 728.932L602.673 730.92L593.718 731.321L584.811 732.302L575.897 733.332L566.908 732.95L557.998 734.171L549.028 734.063L540.088 734.729L531.129 734.864L522.174 735.145L513.203 734.756L504.263 735.561L495.304 735.729L486.334 735.055L477.394 736.085L468.427 735.565L459.472 735.748L450.513 735.857L441.566 736.568L432.599 735.924L423.648 736.505L414.685 736.4L405.734 736.872L396.775 736.992L387.816 736.744L378.857 736.935L369.894 736.531L360.935 736.684L351.976 737.149L343.018 736.242L334.055 736.595L325.096 737.19L316.141 736.347L307.178 737.194L298.223 736.34L289.264 736.733L280.305 736.86L271.346 736.602L262.391 736.265L253.428 736.501L244.469 736.441L235.51 736.52L226.566 735.531L217.596 736.066L208.641 735.92L199.678 735.939L190.742 734.924L181.779 735.029L172.832 734.448L163.873 734.452L154.91 734.557L145.951 734.478L136.996 734.272L128.048 733.819L119.119 732.958L110.183 732.302L101.198 732.628L92.2837 731.669L83.3548 730.954L74.5419 728.932L83.3435 726.808L92.265 725.902L101.201 725.261L110.149 724.808L119.104 724.501L128.052 724.085L137.007 723.913L145.944 723.13L154.925 723.722L163.858 722.812L172.835 723.362L181.776 722.658L190.742 722.935L199.686 722.149L208.637 721.748L217.593 721.523L226.559 722.014L235.514 721.815L244.477 722.044L253.436 722.081L262.391 721.812L271.346 721.624L280.301 721.452L289.26 721.737L298.215 721.07L307.178 721.662L316.133 720.602L325.096 720.883L334.055 721.317L343.018 720.853L351.976 721.621L360.932 721.669L369.894 721.085L378.85 721.227L387.812 720.827L396.767 721.28L405.723 721.71L414.689 720.92L423.644 721.388L432.599 721.789L441.562 721.486L450.51 722.295L459.469 722.298L468.427 722.119L477.398 721.617L486.338 722.624L495.301 722.426L504.248 723.107L513.207 722.991L522.181 722.609L531.129 723.048L540.073 723.632L549.032 723.744L557.961 724.673L566.912 724.901L575.86 725.328L584.792 725.943L593.744 726.25L602.654 727.111L610.871 728.932Z" fill="black"/>
<path d="M514.462 528.487L505.413 528.682L496.39 528.09L487.368 528.438L478.345 528.685L469.326 528.543L460.304 528.217L451.281 528.779L442.262 528.652L433.24 528.813L424.217 528.161L415.195 528.228L406.176 528.093L397.153 528.195L388.13 528.153L379.108 528.198L370.085 528.637L361.066 528.329L352.044 528.483L343.021 528.603L333.999 528.446L324.976 528.165L315.957 528.146L306.935 528.371L297.916 528.813L288.893 528.108L279.874 528.723L270.852 528.756L261.833 528.528L252.81 528.614L243.788 528.524L234.765 528.809L225.746 528.565L216.724 528.524L207.701 528.165L198.678 528.258L189.656 528.187L180.637 528.753L171.614 528.123L162.592 528.543L153.569 528.236L144.547 528.61L135.524 528.266L126.498 528.565L117.479 528.644L108.452 528.674L99.4299 528.539L90.4073 528.431L81.3847 528.569L72.3621 528.251L63.3395 528.153L54.3169 528.625L45.2943 528.786L36.268 528.236L27.2454 528.389L18.219 528.303L9.26383 528.389L9.3687 519.475L9.52601 510.49L8.86682 501.501L8.98293 492.516L9.34623 483.531L9.12525 474.542L8.95297 465.557L9.09529 456.568L9.24511 447.579L9.26758 438.662L18.2153 438.924L27.2379 438.808L36.2567 438.684L45.2793 438.313L54.3019 438.849L63.3208 438.426L72.3434 438.856L81.366 438.261L90.3886 438.512L99.4074 438.25L108.43 438.373L117.453 438.422L126.475 438.699L135.494 438.493L144.517 438.875L153.539 438.246L162.562 438.568L171.581 438.909L180.603 438.238L189.626 438.781L198.648 438.879L207.671 438.62L216.69 438.22L225.709 438.235L234.731 438.272L243.754 438.853L252.773 438.515L261.795 438.534L270.818 438.515L279.837 438.662L288.859 438.965L297.882 438.448L306.901 438.261L315.924 438.912L324.946 438.298L333.969 438.957L342.991 438.688L352.014 438.699L361.037 438.321L370.059 438.706L379.082 438.392L388.104 438.613L397.127 438.227L406.149 438.448L415.172 438.62L424.195 438.864L433.217 438.426L442.24 438.396L451.262 438.403L460.285 438.388L469.308 438.583L478.334 438.261L487.357 438.549L496.383 438.684L505.406 438.755L514.672 438.351L514.57 447.576L514.705 456.561L514.222 465.546L514.233 474.535L514.301 483.52L514.799 492.509L514.803 501.494L514.368 510.483L514.181 519.472L514.462 528.487Z" stroke="black" stroke-width="5" stroke-miterlimit="10"/>
<path d="M215.364 417.815L206.162 417.894L197.147 417.369L188.135 417.86L179.12 417.628L170.109 417.422L161.094 417.991L152.079 417.624L143.067 417.474L134.052 417.556L125.037 417.695L116.026 417.972L107.01 417.272L97.9991 417.418L88.984 417.65L79.9689 417.455L70.9576 417.437L61.9425 417.343L52.9273 417.687L43.9122 417.905L34.8934 417.388L26.1217 417.377L25.0019 408.53L23.7584 399.455L22.6236 390.365L21.8969 381.23L20.7621 372.144L19.8407 363.031L18.2864 353.99L17.6347 344.848L16.3725 335.773L15.6646 326.638L14.4961 317.555L13.4998 308.45L12.1215 299.39L11.35 290.259L10.2563 281.165L8.9567 272.094L8.16267 262.966L7.05029 253.67L16.2639 254.198L25.2753 253.738L34.2904 254.049L43.3017 254.176L52.3168 253.502L61.3282 253.869L70.3433 254.112L79.3584 254.026L88.3698 253.992L97.3849 253.813L106.4 254.093L115.411 254.041L124.426 253.562L133.438 253.869L142.453 253.554L151.468 254.082L160.483 254.195L169.498 254.18L178.513 253.959L187.528 254.011L196.356 254.056L197.386 262.97L198.6 272.049L199.559 281.158L200.941 290.218L201.78 299.338L202.832 308.435L203.727 317.551L205.184 326.6L205.679 335.761L207.124 344.814L208.102 353.919L209.046 363.028L210.327 372.103L211.008 381.241L212.342 390.309L212.911 399.463L214.128 408.545L215.364 417.815Z" fill="white"/>
<path d="M215.364 417.815L206.162 417.894L197.147 417.369L188.135 417.86L179.12 417.628L170.109 417.422L161.094 417.991L152.079 417.624L143.067 417.474L134.052 417.556L125.037 417.695L116.026 417.972L107.01 417.272L97.9991 417.418L88.984 417.65L79.9689 417.455L70.9576 417.437L61.9425 417.343L52.9273 417.687L43.9122 417.905L34.8934 417.388L26.1217 417.377L25.0019 408.53L23.7584 399.455L22.6235 390.365L21.8969 381.23L20.7621 372.144L19.8407 363.031L18.2864 353.99L17.6347 344.848L16.3725 335.773L15.6646 326.638L14.4961 317.555L13.4998 308.45L12.1215 299.39L11.35 290.259L10.2563 281.165L8.9567 272.094L8.16267 262.966L7.05029 253.67L16.2639 254.198L25.2753 253.738L34.2904 254.049L43.3017 254.176L52.3168 253.502L61.3282 253.869L70.3433 254.112L79.3584 254.026L88.3698 253.992L97.3849 253.813L106.4 254.093L115.411 254.041L124.426 253.562L133.438 253.869L142.453 253.554L151.468 254.082L160.483 254.195L169.498 254.18L178.513 253.959L187.528 254.011L196.356 254.056L197.386 262.97L198.6 272.049L199.559 281.158L200.941 290.218L201.78 299.338L202.832 308.435L203.727 317.551L205.184 326.6L205.679 335.761L207.124 344.814L208.102 353.919L209.046 363.028L210.327 372.103L211.008 381.241L212.342 390.309L212.911 399.463L214.128 408.545L215.364 417.815Z" stroke="black" stroke-width="5" stroke-miterlimit="10"/>
<path d="M175.708 273.161L166.378 273.09L157.187 273.229L147.992 273.333L138.797 272.794L129.603 273.378L120.411 273.086L111.217 273.041L102.022 272.663L92.8268 273.285L83.6319 272.674L74.437 273.142L65.2421 273.098L56.0473 272.745L46.916 272.951L46.5041 264.199L47.1895 255.378L46.6501 246.558L46.8936 237.734L46.6988 228.913L46.8074 220.089L47.2044 211.265L46.5303 202.441L46.8262 193.591L56.0435 193.4L65.2384 193.497L74.4295 193.662L83.6244 193.962L92.8193 193.838L102.01 193.816L111.205 193.329L120.4 193.681L129.595 193.295L138.79 193.542L147.985 193.43L157.18 193.302L166.378 193.823L175.761 193.422L175.719 202.437L175.45 211.258L175.206 220.082L175.817 228.902L175.337 237.726L175.779 246.55L175.603 255.371L175.39 264.199L175.708 273.161Z" fill="white"/>
<path d="M175.708 273.161L166.378 273.09L157.187 273.229L147.992 273.333L138.797 272.794L129.603 273.378L120.411 273.086L111.217 273.041L102.022 272.663L92.8268 273.285L83.6319 272.674L74.437 273.142L65.2421 273.098L56.0473 272.745L46.916 272.951L46.5041 264.199L47.1895 255.378L46.6501 246.558L46.8936 237.734L46.6988 228.913L46.8074 220.089L47.2044 211.265L46.5303 202.441L46.8262 193.591L56.0435 193.4L65.2384 193.497L74.4295 193.662L83.6244 193.962L92.8193 193.838L102.01 193.816L111.205 193.329L120.4 193.681L129.595 193.295L138.79 193.542L147.985 193.43L157.18 193.302L166.378 193.823L175.761 193.422L175.719 202.437L175.45 211.258L175.206 220.082L175.817 228.902L175.337 237.726L175.779 246.55L175.603 255.371L175.39 264.199L175.708 273.161Z" stroke="black" stroke-width="5" stroke-miterlimit="10"/>
<path d="M205.121 238.779L195.783 238.265L186.588 238.576L177.394 238.64L168.202 238.958L159.008 238.546L149.813 238.809L140.621 238.531L131.427 238.996L122.232 238.767L113.037 238.966L103.842 238.707L94.647 238.981L85.4484 238.423L76.3397 238.535L75.894 229.808L76.3921 220.984L76.1037 212.164L76.3359 203.34L76.4633 194.52L75.9427 185.695L76.055 176.875L76.1524 168.047L76.3547 159.332L85.4447 159.058L94.6395 159.249L103.834 158.897L113.029 159.557L122.224 159.478L131.415 159.508L140.61 159.527L149.801 159.598L158.996 159.452L168.195 158.969L177.39 159.163L186.585 158.965L195.78 159.418L204.907 159.294L205.319 168.044L205.019 176.868L205.192 185.688L204.843 194.512L204.69 203.332L204.862 212.157L205.312 220.981L205.038 229.805L205.121 238.779Z" fill="#FFC32D"/>
<path d="M200.398 243.385L191.06 242.872L181.866 243.179L172.671 243.243L163.476 243.565L154.285 243.153L145.09 243.415L135.899 243.134L126.704 243.603L117.509 243.374L108.314 243.569L99.119 243.314L89.9204 243.584L80.7255 243.026L71.6168 243.142L71.1711 234.412L71.6692 225.591L71.3808 216.771L71.613 207.947L71.7404 199.123L71.2198 190.302L71.3321 181.478L71.4295 172.654L71.6318 163.935L80.7218 163.665L89.9167 163.852L99.1115 163.504L108.306 164.163L117.498 164.081L126.692 164.115L135.884 164.13L145.078 164.205L154.273 164.055L163.468 163.572L172.663 163.766L181.862 163.568L191.057 164.021L200.184 163.901L200.596 172.65L200.296 181.471L200.469 190.295L200.12 199.115L199.967 207.939L200.135 216.763L200.589 225.584L200.315 234.408L200.398 243.385Z" stroke="black" stroke-width="5" stroke-miterlimit="10"/>
<path d="M279.436 203.426L270.342 203.655L261.147 203.887L251.953 203.891L242.758 203.816L233.567 203.362L224.372 203.449L215.177 203.538L205.986 203.711L196.791 203.718L187.596 203.651L178.401 203.179L169.202 203.606L160.007 203.782L150.599 203.752L151.112 194.711L150.94 185.89L151.161 177.07L150.914 168.246L151.041 159.422L150.745 150.601L150.786 141.777L150.464 132.953L150.756 124.073L160.004 123.901L169.199 124.088L178.394 124.241L187.585 123.848L196.78 123.878L205.974 124.44L215.166 124.365L224.36 124.466L233.555 124.122L242.75 124.223L251.945 123.844L261.14 124.29L270.339 124.118L279.354 124.316L279.713 132.949L279.215 141.77L279.616 150.59L279.799 159.414L279.593 168.238L279.68 177.059L279.758 185.883L279.859 194.711L279.436 203.426Z" fill="white"/>
<path d="M279.436 203.426L270.342 203.655L261.147 203.887L251.953 203.891L242.758 203.816L233.567 203.362L224.372 203.449L215.177 203.538L205.986 203.711L196.791 203.718L187.596 203.651L178.401 203.179L169.202 203.606L160.007 203.782L150.599 203.752L151.112 194.711L150.94 185.89L151.161 177.07L150.914 168.246L151.041 159.422L150.745 150.601L150.786 141.777L150.464 132.953L150.756 124.073L160.004 123.901L169.199 124.088L178.394 124.241L187.585 123.848L196.78 123.878L205.974 124.44L215.166 124.365L224.36 124.466L233.555 124.122L242.75 124.223L251.945 123.844L261.14 124.29L270.339 124.118L279.354 124.316L279.713 132.949L279.215 141.77L279.616 150.59L279.799 159.414L279.593 168.238L279.68 177.059L279.758 185.883L279.859 194.711L279.436 203.426Z" stroke="black" stroke-width="5" stroke-miterlimit="10"/>
<path d="M327.995 224.078L327.579 232.015L324.912 239.419L319.133 244.281L311.575 240.123L307.096 232.561L303.571 224.73L298.451 225.172L299.597 215.535L300.515 205.864L298.811 197.467L298.126 188.92L299.856 180.542L302.751 172.62L308.081 166.047L315.643 162.212L323.927 160.261L332.399 160.328L340.639 162.399L347.879 167.006L353.07 173.815L357.018 181.332L359.883 189.351L361.512 197.737L360.801 206.258L359.145 214.644L359.98 223.168L363.16 230.846L369.198 236.554L375.696 241.723L383.085 245.558L390.554 249.254L398.43 251.955L389.932 254.85L381.557 258.105L372.984 260.783L364.516 263.772L355.928 266.966L349.666 261.034L343.317 255.472L337.482 249.344L330.92 244.018L324.879 238.116" fill="white"/>
<path d="M327.995 224.078L327.579 232.015L324.912 239.419L319.133 244.281L311.575 240.123L307.096 232.561L303.571 224.73L298.451 225.172L299.597 215.535L300.515 205.864L298.811 197.467L298.126 188.92L299.856 180.542L302.751 172.62L308.081 166.047L315.643 162.212L323.927 160.261L332.399 160.328L340.639 162.399L347.879 167.006L353.07 173.815L357.018 181.332L359.883 189.351L361.512 197.737L360.801 206.258L359.145 214.644L359.98 223.168L363.16 230.846L369.198 236.554L375.696 241.723L383.085 245.558L390.554 249.254L398.43 251.955L389.932 254.85L381.557 258.105L372.984 260.783L364.516 263.772L355.928 266.966L349.666 261.034L343.317 255.472L337.482 249.344L330.92 244.018L324.879 238.116" stroke="black" stroke-width="5" stroke-miterlimit="10"/>
<path d="M298.429 185.699C298.429 185.699 309.088 178.845 315.834 189.939C322.579 201.033 321.373 209.497 321.373 209.497H325.718C325.718 209.497 328.369 199.261 334.635 198.374C340.901 197.486 342.126 212.134 334.635 214.13C344.516 221.677 346.928 225.449 346.928 225.449C346.928 225.449 352.01 223.044 359.89 222.232C359.89 222.232 359.516 217.737 360.227 207.958C360.939 198.179 360.905 181.905 348.43 167.883C335.954 153.86 309.103 159.74 302.463 172.673C297.369 182.564 298.429 185.699 298.429 185.699Z" fill="black" stroke="black" stroke-width="5" stroke-miterlimit="10"/>
<path d="M365.89 551.877L366.857 560.727L368.171 569.528L369.426 578.341L370.969 587.117L371.969 595.963L372.692 604.847L374.512 613.585L375.647 622.417L376.861 631.233L377.658 640.11L378.554 648.968L379.879 657.773L381.509 666.537L382.198 675.425L383.692 684.208L384.704 693.055L385.456 701.935L386.797 710.736L387.88 719.576L389.359 728.407L380.243 728.467L371.172 728.089L362.1 728.302L353.029 728.606L343.954 728.793L334.879 728.261L325.808 728.313L316.736 728.883L307.661 729.021L298.519 728.872L305.545 723.032L312.755 717.658L320.62 713.265L328.89 709.677L337.557 707.208L346.475 705.414L344.658 696.515L342.725 687.77L340.508 679.088L337.856 670.53L335.463 661.897L333.306 653.196L330.695 644.623L328.396 635.96L325.909 627.353L322.98 618.878L320.867 610.162L318.137 601.623L315.343 593.098L313.103 584.42L311.07 575.69L308.931 566.989L307.148 558.206L304.796 549.547L303.598 540.655L301.905 531.843L301.785 522.861L301.481 513.932L301.684 504.955L304.463 496.434L308.624 488.509L316.437 484.25L325.148 481.647L334.156 480.216L343.134 478.475L352.231 477.628L361.344 477.003L370.452 476.351L379.591 476.261L388.681 475.201L397.816 475.134L406.929 474.4L416.067 474.467L425.198 474.299L434.326 474.19L443.457 474.066L452.585 473.733L461.716 473.894L470.84 474.183" fill="white"/>
<path d="M365.89 551.877L366.857 560.727L368.171 569.528L369.426 578.341L370.969 587.117L371.969 595.963L372.692 604.847L374.512 613.585L375.647 622.417L376.861 631.233L377.658 640.11L378.554 648.968L379.879 657.773L381.509 666.537L382.198 675.425L383.692 684.208L384.704 693.055L385.456 701.935L386.797 710.736L387.88 719.576L389.359 728.407L380.243 728.467L371.172 728.089L362.1 728.302L353.029 728.606L343.954 728.793L334.879 728.261L325.808 728.313L316.736 728.883L307.661 729.021L298.519 728.872L305.545 723.032L312.755 717.658L320.62 713.265L328.89 709.677L337.557 707.208L346.475 705.414L344.658 696.515L342.725 687.77L340.508 679.088L337.856 670.53L335.463 661.897L333.306 653.196L330.695 644.623L328.396 635.96L325.909 627.353L322.98 618.877L320.867 610.162L318.137 601.623L315.343 593.098L313.103 584.42L311.07 575.69L308.931 566.989L307.148 558.206L304.796 549.547L303.598 540.655L301.905 531.843L301.785 522.861L301.481 513.932L301.684 504.955L304.463 496.434L308.624 488.509L316.437 484.25L325.148 481.647L334.156 480.216L343.134 478.475L352.231 477.628L361.344 477.003L370.452 476.351L379.591 476.261L388.681 475.201L397.816 475.134L406.929 474.4L416.067 474.467L425.198 474.299L434.326 474.19L443.457 474.066L452.585 473.733L461.716 473.894L470.84 474.183" stroke="black" stroke-width="5" stroke-miterlimit="10"/>
<path d="M380.595 420.901L340.092 438.583H301.77C301.77 438.583 318.624 419.481 369.883 412.579" fill="white"/>
<path d="M380.595 420.901L340.092 438.583H301.77C301.77 438.583 318.624 419.481 369.883 412.579" stroke="black" stroke-width="5" stroke-miterlimit="10"/>
<path d="M255.241 571.289L260.309 563.933L268.814 560.416L277.844 558.562L286.949 557.075L296.096 555.693L305.328 555.18L314.571 555.034L323.8 554.633L333.032 554.229L342.276 554.311L351.512 553.633L360.756 553.63L369.999 554.109L379.243 554.184L388.486 553.734L397.73 553.955L406.962 554.521L416.217 554.086L425.434 554.907L434.67 555.255L443.862 556.206L453.068 556.97L462.21 558.289L471.203 560.375L479.574 564.12L484.24 571.289L479.776 578.772L471.281 582.484L462.206 584.304L453.113 585.982L443.858 586.334L434.663 587.263L425.453 588.102L416.213 588.417L406.97 588.458L397.73 588.858L388.483 588.368L379.243 588.847L369.999 588.761L360.759 588.308L351.512 588.791L342.272 588.387L333.032 588.293L323.804 587.802L314.556 587.836L305.324 587.368L296.126 586.488L286.889 585.963L277.803 584.218L268.781 582.259L260.425 578.458L255.241 571.289Z" fill="black"/>
<path d="M255.241 571.289L260.309 563.933L268.814 560.416L277.844 558.562L286.949 557.075L296.096 555.693L305.328 555.18L314.571 555.034L323.8 554.633L333.032 554.229L342.276 554.311L351.512 553.633L360.756 553.63L369.999 554.109L379.243 554.184L388.486 553.734L397.73 553.955L406.962 554.521L416.217 554.086L425.434 554.907L434.67 555.255L443.862 556.206L453.068 556.97L462.21 558.289L471.203 560.375L479.574 564.12L484.24 571.289L479.776 578.772L471.281 582.484L462.206 584.304L453.113 585.982L443.858 586.334L434.663 587.263L425.453 588.102L416.213 588.417L406.97 588.458L397.73 588.858L388.483 588.368L379.243 588.847L369.999 588.761L360.759 588.308L351.512 588.791L342.272 588.387L333.032 588.293L323.804 587.802L314.556 587.836L305.324 587.368L296.126 586.488L286.889 585.963L277.803 584.218L268.781 582.259L260.425 578.458L255.241 571.289Z" stroke="black" stroke-width="5" stroke-miterlimit="10"/>
<path d="M436.341 281.131L441.337 288.675L446.139 296.311L450.633 304.139L454.517 312.289L458.293 320.488L461.379 328.971L464.72 337.357L467.577 345.919L470.394 354.507L471.948 363.432L474.162 372.178L475.66 381.077L477.581 389.904L478.499 398.89L479.825 407.826L480.75 416.811L481.188 425.834V434.868L481.866 443.883L481.858 452.92L480.993 461.928L480.735 470.95L480.289 479.969L479.664 488.981L478.409 497.928L477.45 506.835L475.285 515.524L472.263 523.932L468.323 531.906L463.27 539.195L457.188 545.742L449.206 549.749L440.944 553.135L432.068 554.349L423.127 554.397L414.195 553.91L405.79 557.57L396.973 560.034L388.029 562.042L378.909 563.027L369.808 564.248L360.621 564.233L351.452 564.409L342.276 564.544L333.1 564.315L323.935 563.794L314.785 563.087L305.624 562.461L296.496 561.465L287.391 560.304L278.26 559.319L269.211 557.757L260.069 556.836L251.069 554.989L242.031 553.405L232.829 551.839L235.649 560.229L238.469 568.555L240.383 577.154L242.93 585.563L246.084 593.787L248.649 602.192L250.784 610.728L253.286 619.147L255.777 627.574L258.754 635.852L261.44 644.219L263.556 652.762L266.095 661.17L268.784 669.537L271.503 677.893L273.829 686.373L276.256 694.819L279.241 703.096L281.47 711.605L283.972 720.029L286.923 728.486L277.788 728.156L268.814 728.164L259.84 728.699L250.863 728.179L241.889 728.576L232.915 728.819L223.937 728.86L214.96 728.857L205.982 728.377L197.004 728.418L188.135 728.404L194.776 722.703L202.375 717.853L210.151 713.272L218.536 709.928L227.181 707.366L235.829 705.208L232.994 696.965L230.582 688.418L226.956 680.309L223.686 672.073L220.731 663.706L217.162 655.59L213.697 647.429L210.124 639.316L206.739 631.125L203.33 622.941L199.626 614.881L196.431 606.608L193.158 598.372L189.618 590.241L185.97 582.147L183.244 573.697L180.334 565.323L177.394 556.967L174.296 548.656L171.787 540.146L169.581 531.558L168.304 522.779L166.671 514.063L166.341 505.187L168.33 496.561L172.247 488.786L179.397 483.617L188.352 481.894L197.3 480.336L206.278 478.887L215.312 477.79L224.383 477.044L233.488 476.823L242.567 476.288L251.638 475.531L260.743 475.527L269.814 474.61L278.912 474.329L288.024 474.793L297.111 473.887L306.216 474.385L315.313 474.314L324.407 473.67L333.504 474.01L342.489 473.823L344.931 465.029L347.182 456.063L348.887 446.98L350.227 437.834L351.272 428.646L351.838 419.403L351.681 410.133L350.774 400.901L348.86 391.833L346.958 382.758L343.714 374.069L340.13 365.515L335.448 357.514L329.965 350.061L323.875 343.267L319.178 350.968L315.234 359.091L310.354 366.676L306.092 374.627L301.403 382.327L296.032 389.594L291.571 397.444L286.17 404.672L281.005 412.055L275.702 419.343L269.945 426.276L264.095 433.115L258.23 439.969L251.353 445.793L244.17 451.179L235.964 454.718L226.993 455.377L218.027 454.497L209.132 452.999L200.18 451.583L191.536 448.894L182.892 446.261L174.304 443.422L165.712 440.598L157.206 437.519L148.738 434.339L140.46 430.68L132.131 427.163L123.764 423.736L115.591 419.867L107.269 416.216L101.827 422.56L96.089 428.572L90.632 434.89L84.0065 436.313L83.8417 427.388L86.0664 418.755L89.4822 410.616L95.5572 404.242L103.231 399.92L111.756 397.474L120.625 396.916L129.535 396.669L138.322 398.223L147.198 399.054L155.906 400.934L164.558 403.043L173.173 405.283L181.727 407.759L190.319 410.099L199.053 411.86L207.712 413.991L216.611 414.305L224.522 411.74L229.773 404.47L234.039 396.59L238.705 388.938L242.383 380.747L246.949 373.031L251.087 365.091L254.803 356.938L259.095 349.069L262.762 340.896L266.964 332.975L270.582 324.78L274.387 316.664L277.249 308.15L281.271 300.21L285.373 292.323L290.268 284.892L296.017 278.101L302.616 272.157L309.616 266.753L316.83 261.547L325.096 258.243L333.25 254.741L341.778 252.255L350.403 250.078L359.22 248.917L368.067 248.135L376.898 247.254L385.782 247.176L394.651 246.708L403.513 247.277L412.007 249.839L420.356 252.884L427.839 257.682L435.098 262.798L441.764 268.67L447.577 275.39L453.293 282.154L458.869 289.049L463.877 296.367L468.244 304.09L472.783 311.697L476.948 319.521L481.188 327.33L484.701 335.48L487.529 343.904L491.087 352.046L492.447 361.346L491.656 370.627L489.184 379.698L484.244 387.728L478.102 394.815" fill="white"/>
<path d="M436.341 281.131L441.337 288.675L446.139 296.311L450.633 304.139L454.517 312.289L458.293 320.488L461.379 328.971L464.72 337.357L467.577 345.919L470.394 354.507L471.948 363.432L474.162 372.178L475.66 381.077L477.581 389.904L478.499 398.89L479.825 407.826L480.75 416.811L481.188 425.834V434.868L481.866 443.883L481.858 452.92L480.993 461.928L480.735 470.95L480.289 479.969L479.664 488.981L478.409 497.928L477.45 506.835L475.285 515.524L472.263 523.932L468.323 531.906L463.27 539.195L457.188 545.742L449.206 549.749L440.944 553.135L432.067 554.349L423.127 554.397L414.195 553.91L405.79 557.57L396.973 560.034L388.029 562.042L378.909 563.027L369.808 564.248L360.621 564.233L351.452 564.409L342.276 564.544L333.1 564.315L323.935 563.794L314.785 563.087L305.624 562.461L296.496 561.465L287.391 560.304L278.26 559.319L269.211 557.757L260.069 556.836L251.069 554.989L242.031 553.405L232.829 551.839L235.649 560.229L238.469 568.555L240.383 577.154L242.93 585.563L246.084 593.787L248.649 602.192L250.784 610.728L253.286 619.147L255.777 627.574L258.754 635.852L261.44 644.219L263.556 652.762L266.095 661.17L268.784 669.537L271.503 677.893L273.829 686.373L276.256 694.819L279.241 703.096L281.47 711.606L283.972 720.029L286.923 728.486L277.788 728.156L268.814 728.164L259.84 728.699L250.863 728.179L241.889 728.576L232.915 728.819L223.937 728.86L214.96 728.857L205.982 728.377L197.004 728.418L188.135 728.404L194.776 722.703L202.375 717.853L210.151 713.272L218.536 709.928L227.181 707.366L235.829 705.208L232.994 696.965L230.582 688.418L226.956 680.309L223.686 672.073L220.731 663.706L217.162 655.59L213.697 647.429L210.124 639.316L206.739 631.125L203.33 622.941L199.626 614.881L196.431 606.608L193.158 598.372L189.618 590.241L185.97 582.147L183.244 573.697L180.334 565.323L177.394 556.967L174.296 548.656L171.787 540.146L169.581 531.558L168.304 522.779L166.671 514.063L166.341 505.187L168.33 496.561L172.247 488.786L179.397 483.617L188.352 481.894L197.3 480.336L206.278 478.887L215.312 477.79L224.383 477.044L233.488 476.823L242.567 476.288L251.638 475.531L260.743 475.527L269.814 474.61L278.912 474.329L288.024 474.793L297.111 473.887L306.216 474.385L315.313 474.314L324.407 473.67L333.504 474.01L342.489 473.823L344.931 465.029L347.182 456.063L348.887 446.98L350.227 437.834L351.272 428.646L351.838 419.403L351.681 410.133L350.774 400.901L348.86 391.833L346.958 382.758L343.714 374.069L340.13 365.515L335.448 357.514L329.965 350.061L323.875 343.267L319.178 350.968L315.234 359.091L310.354 366.676L306.092 374.627L301.403 382.327L296.032 389.594L291.571 397.444L286.17 404.672L281.005 412.055L275.702 419.343L269.945 426.276L264.095 433.115L258.23 439.969L251.353 445.793L244.17 451.179L235.964 454.718L226.993 455.377L218.027 454.497L209.132 452.999L200.18 451.583L191.536 448.894L182.892 446.261L174.304 443.422L165.712 440.598L157.206 437.519L148.738 434.339L140.46 430.68L132.131 427.163L123.764 423.736L115.591 419.867L107.269 416.216L101.827 422.56L96.089 428.572L90.632 434.89L84.0065 436.313L83.8417 427.388L86.0664 418.755L89.4822 410.616L95.5572 404.242L103.231 399.92L111.756 397.474L120.625 396.916L129.535 396.669L138.322 398.223L147.198 399.054L155.906 400.934L164.558 403.043L173.173 405.283L181.727 407.759L190.319 410.099L199.053 411.86L207.712 413.991L216.611 414.305L224.522 411.74L229.773 404.47L234.039 396.59L238.705 388.938L242.383 380.747L246.949 373.031L251.087 365.091L254.803 356.938L259.095 349.069L262.762 340.896L266.964 332.975L270.582 324.78L274.387 316.664L277.249 308.15L281.271 300.21L285.373 292.323L290.268 284.892L296.017 278.101L302.616 272.157L309.616 266.753L316.83 261.547L325.096 258.243L333.25 254.741L341.778 252.255L350.403 250.078L359.22 248.917L368.067 248.135L376.898 247.254L385.782 247.176L394.651 246.708L403.513 247.277L412.007 249.839L420.356 252.884L427.839 257.682L435.097 262.798L441.764 268.67L447.577 275.39L453.293 282.154L458.869 289.049L463.877 296.367L468.244 304.09L472.783 311.697L476.948 319.521L481.188 327.33L484.701 335.48L487.529 343.904L491.087 352.046L492.447 361.346L491.656 370.627L489.184 379.698L484.244 387.728L478.102 394.815" stroke="black" stroke-width="5" stroke-miterlimit="10"/>
<path d="M414.112 553.772L421.7 549.034L427.045 541.88" stroke="black" stroke-width="5" stroke-miterlimit="10"/>
<path d="M239.308 386.923L235.889 379.088L233.638 370.885L232.567 362.466L233.851 354.08L236.919 346.196L241.334 338.267L248.057 332.158L255.132 326.477L263.245 322.402L271.541 318.731L280.298 316.36L289.073 314.143L297.95 312.345L306.867 310.705L315.864 309.562L324.905 308.873L333.965 308.488L343.003 307.611L352.07 307.33L361.141 307.514L370.205 307.503L379.269 307.873L388.333 307.989L397.4 308.106L406.475 307.971L415.52 308.929L424.592 308.866L433.663 308.862L442.712 309.679L451.776 310.072L460.854 309.495L469.918 310.184L478.978 309.495L488.031 309.169L497.072 308.712L506.117 308.064L515.039 306.45L523.732 303.858L531.395 299.117L536.413 291.742L536.148 282.678L532.458 274.319L528.541 266.075L523.335 258.551L517.29 251.685L510.971 245.09L504.117 239.048L497.593 232.636L490.237 227.198L483.001 221.632L475.813 215.999L468.645 210.333L461.48 204.658L453.761 199.729L446.599 194.048L439.596 188.175L432.981 181.868L427.285 174.684L427.491 165.853L435.015 160.789L443.925 158.823L452.888 157.137L461.937 155.807" stroke="black" stroke-width="5" stroke-miterlimit="10"/>
<path d="M271.9 424.242C291.069 441.055 315.721 457.991 342.313 474.456C342.313 474.456 410.262 484.228 480.69 473.954" stroke="black" stroke-width="5" stroke-miterlimit="10"/>
<path d="M250.679 609.241L258.672 611.488L266.634 613.833L274.638 616.035L282.65 618.211L290.571 620.713L298.65 622.653L307.32 625.484L316.276 627.241L325.047 629.724L333.946 631.683L342.812 633.814L351.797 635.372L360.782 636.893L369.778 638.309L378.808 639.503L387.786 641.11L396.842 642.129L405.925 642.874L414.989 643.81L424.067 644.698L433.195 644.548L442.3 644.702L451.409 645.222L460.51 644.631L469.604 644.196L478.712 643.84L487.746 642.638L496.761 641.365L505.686 639.589L514.675 637.979L523.38 635.211L531.687 631.41L539.361 626.518L545.949 620.233L549.047 611.671L547.451 602.668L542.204 595.196L536.088 588.428L529.013 583.132L521.818 578.031L514.72 572.761L507.061 568.36L499.488 563.828L491.761 559.558L484.345 554.753L476.555 550.599L468.858 546.277L461.105 542.056" stroke="black" stroke-width="5" stroke-miterlimit="10"/>
<path d="M26.0356 629.889L34.972 632.196L43.9684 634.241L52.9835 636.207L61.9612 638.331L71.0624 639.855L80.0701 641.938L89.2425 643.028L98.4523 643.649L107.632 644.822L116.872 644.327L125.977 642.661L132.498 636.612L132.075 627.642L126.524 620.128L119.239 614.207L111.363 609.128L103.677 603.761L97.1602 597.061L94.0478 588.619L99.6134 581.697L108.55 579.72L117.85 579.21L127.101 580.345L136.299 581.802L145.505 583.24L154.614 585.195L163.667 587.401L172.783 589.315L181.779 591.754L190.922 593.596" stroke="black" stroke-width="5" stroke-miterlimit="10"/>
<path d="M478.21 395.125L477.922 394.968L476.937 386.073L474.982 377.339L473.413 368.53L471.233 359.855L468.783 351.26L466.686 342.552L463.368 334.233L460.547 325.892L454.843 332.926L449.131 340.005L444.098 347.604L438.195 354.541L433.026 362.039L427.367 369.159L421.674 376.256L416.269 383.578L410.786 390.833L405.393 398.159L399.981 405.189L408.689 406.17L417.659 406.871L426.551 408.339L435.521 409.051L444.506 409.631L453.386 411.23L462.36 411.931L471.296 412.98L480.21 413.425L479.323 404.287L478.461 394.893L478.21 395.125Z" fill="white"/>
<path d="M478.21 395.125L477.922 394.968L476.937 386.073L474.982 377.339L473.413 368.53L471.233 359.855L468.783 351.26L466.686 342.552L463.368 334.233L460.547 325.892L454.843 332.926L449.131 340.005L444.098 347.604L438.195 354.541L433.026 362.039L427.367 369.159L421.674 376.256L416.269 383.578L410.786 390.833L405.393 398.159L399.981 405.189L408.689 406.17L417.659 406.871L426.551 408.339L435.521 409.051L444.506 409.631L453.386 411.23L462.36 411.931L471.296 412.98L480.21 413.425L479.323 404.287L478.461 394.893L478.21 395.125Z" stroke="black" stroke-width="5" stroke-miterlimit="10"/>
<path d="M478.469 394.893L484.548 387.942L488.862 379.552L491.881 370.676L492.956 361.316L490.945 352.095L487.398 343.642L484.596 334.892L480.387 326.739L476.6 318.394L472.345 310.446L466.398 318.076L460.143 325.623L463.918 334.035L466.525 342.604L469.296 351.114L471.532 359.784L473.439 368.526L474.963 377.339L476.656 386.118L478.469 394.893Z" fill="white"/>
<path d="M478.469 394.893L484.548 387.942L488.862 379.552L491.881 370.676L492.956 361.316L490.945 352.095L487.398 343.642L484.596 334.892L480.387 326.739L476.6 318.394L472.345 310.446L466.398 318.076L460.143 325.623L463.918 334.035L466.525 342.604L469.296 351.114L471.532 359.784L473.439 368.526L474.963 377.339L476.656 386.118L478.469 394.893Z" stroke="black" stroke-width="5" stroke-miterlimit="10"/>
<path d="M477.892 394.972L479.446 404.275L480.383 413.425L489.094 414.526L497.919 415.358L506.743 416.193L515.57 417.013L524.372 418.043L533.129 419.526L541.975 420.137L550.799 420.991L559.65 421.59L568.425 422.916L577.268 423.571L586.058 424.77L594.609 425.347L592.564 416.995L590.193 408.41L588.257 399.713L585.807 391.152L584.163 382.384L581.905 373.769L579.249 365.26L577.549 356.503L575.081 347.941L573.122 339.252L571.062 330.589L568.373 322.087L566.294 313.428L564.204 304.772L562.26 296.079L559.773 287.525L557.77 278.847L555.249 270.3L553.698 261.506L551.436 252.891L549.283 244.251L547.114 235.614L544.998 226.962L542.496 218.194L537.256 225.64L531.706 232.591L526.466 239.779L520.705 246.573L515.383 253.7L510.334 261.037L504.694 267.925L499.432 275.097L493.757 281.955L488.237 288.933L482.971 296.109L477.93 303.454L472.319 310.345L476.731 318.327L480.626 326.623L484.476 334.945L488.008 343.406L490.641 352.2L493.042 361.312L492.02 370.706L488.993 379.608L483.975 387.537L477.892 394.972Z" fill="white"/>
<path d="M477.892 394.972L479.446 404.275L480.383 413.425L489.094 414.526L497.919 415.358L506.743 416.193L515.571 417.013L524.372 418.043L533.129 419.526L541.975 420.137L550.799 420.991L559.65 421.59L568.425 422.916L577.268 423.571L586.058 424.77L594.609 425.347L592.564 416.995L590.193 408.41L588.257 399.713L585.807 391.152L584.163 382.384L581.905 373.769L579.249 365.26L577.549 356.503L575.081 347.941L573.122 339.252L571.062 330.589L568.373 322.087L566.294 313.428L564.204 304.772L562.26 296.079L559.773 287.525L557.77 278.847L555.249 270.3L553.698 261.506L551.436 252.891L549.283 244.251L547.114 235.614L544.998 226.962L542.496 218.194L537.256 225.64L531.706 232.591L526.466 239.779L520.705 246.573L515.383 253.7L510.334 261.037L504.694 267.925L499.432 275.097L493.757 281.955L488.237 288.933L482.971 296.109L477.93 303.454L472.319 310.345L476.731 318.327L480.626 326.623L484.476 334.945L488.008 343.406L490.641 352.2L493.042 361.312L492.02 370.706L488.993 379.608L483.975 387.537L477.892 394.972Z" stroke="black" stroke-width="5" stroke-miterlimit="10"/>
<path d="M517.615 141.421L508.286 138.313L499.259 135.245L490.173 132.346L481.218 129.065L472.034 126.462L463.248 123.522L465.952 132.384L468.735 141.508L472.079 150.44L475.27 159.429L478.282 168.474L481.147 177.864L486.555 170.025L491.626 162.564L498.222 169.403L505.604 175.759L512.215 182.86L517.571 178.01L522.544 172.639L515.466 165.879L508.668 158.92L501.922 152.025L509.402 146.526L517.615 141.421Z" fill="black"/>
<path d="M517.615 141.421L508.286 138.313L499.259 135.245L490.173 132.346L481.218 129.065L472.034 126.462L463.248 123.522L465.952 132.384L468.735 141.508L472.079 150.44L475.27 159.429L478.282 168.474L481.147 177.864L486.555 170.025L491.626 162.564L498.222 169.403L505.604 175.759L512.215 182.86L517.571 178.01L522.544 172.639L515.466 165.879L508.668 158.92L501.922 152.025L509.402 146.526L517.615 141.421Z" stroke="black" stroke-width="5" stroke-miterlimit="10"/>
<path d="M138.547 334.012L129.217 330.904L120.19 327.836L111.104 324.937L102.149 321.652L92.9654 319.053L84.1787 316.113L86.8829 324.975L89.6657 334.098L93.0141 343.031L96.2014 352.02L99.2126 361.065L102.078 370.455L107.49 362.616L112.557 355.155L119.157 361.994L126.539 368.35L133.149 375.451L138.502 370.601L143.475 365.226L136.397 358.469L129.599 351.511L122.853 344.615L130.333 339.117L138.547 334.012Z" fill="black"/>
<path d="M138.547 334.012L129.217 330.904L120.19 327.836L111.104 324.937L102.149 321.652L92.9654 319.053L84.1787 316.113L86.8829 324.975L89.6657 334.098L93.0141 343.031L96.2014 352.02L99.2126 361.065L102.078 370.455L107.49 362.616L112.557 355.155L119.157 361.994L126.539 368.35L133.149 375.451L138.502 370.601L143.475 365.226L136.397 358.469L129.599 351.511L122.853 344.615L130.333 339.117L138.547 334.012Z" stroke="black" stroke-width="5" stroke-miterlimit="10"/>
<path d="M160.764 274.551L151.434 271.446L142.408 268.374L133.322 265.479L124.37 262.195L115.183 259.592L106.396 256.651L109.1 265.513L111.883 274.637L115.232 283.573L118.423 292.558L121.434 301.607L124.299 310.993L129.707 303.154L134.775 295.693L141.374 302.532L148.756 308.888L155.367 315.989L160.723 311.139L165.693 305.768L158.614 299.008L151.82 292.049L145.075 285.154L152.55 279.659L160.764 274.551Z" fill="white"/>
<path d="M160.764 274.551L151.434 271.446L142.408 268.374L133.322 265.479L124.37 262.195L115.183 259.592L106.396 256.651L109.1 265.513L111.883 274.637L115.232 283.573L118.423 292.558L121.434 301.607L124.299 310.993L129.707 303.154L134.775 295.693L141.374 302.532L148.756 308.888L155.367 315.989L160.723 311.139L165.693 305.768L158.614 299.008L151.82 292.049L145.075 285.154L152.55 279.659L160.764 274.551Z" stroke="black" stroke-width="5" stroke-miterlimit="10"/>
<path d="M384.67 302.896L375.34 299.787L366.314 296.716L357.227 293.821L348.272 290.536L339.089 287.933L330.302 284.996L333.006 293.858L335.789 302.982L339.137 311.914L342.328 320.9L345.34 329.948L348.201 339.338L353.613 331.495L358.681 324.034L365.28 330.877L372.662 337.229L379.273 344.331L384.625 339.484L389.599 334.11L382.52 327.353L375.726 320.39L368.98 313.499L376.456 308.001L384.67 302.896Z" fill="#FFC32D"/>
<path d="M382.981 298.648L373.651 295.54L364.625 292.472L355.538 289.573L346.583 286.289L337.399 283.686L328.613 280.749L331.317 289.611L334.1 298.735L337.448 307.667L340.639 316.652L343.647 325.701L346.512 335.091L351.924 327.252L356.991 319.787L363.591 326.63L370.973 332.982L377.584 340.083L382.936 335.237L387.91 329.862L380.831 323.106L374.033 316.147L367.288 309.252L374.767 303.753L382.981 298.648Z" stroke="black" stroke-width="5" stroke-miterlimit="10"/>
<path d="M279.743 705.313H235.975" stroke="black" stroke-width="5" stroke-miterlimit="10"/>
<path d="M346.347 705.313H386.277" stroke="black" stroke-width="5" stroke-miterlimit="10"/>
<path d="M121.655 396.717C121.655 396.717 107.149 401.253 107.288 416.287" stroke="black" stroke-width="5" stroke-miterlimit="10"/>
<path d="M248.672 705.373L245.188 697.1L242.391 688.549L239.009 680.242L234.982 672.189L232.065 663.691L228.701 655.369L225.649 646.93L222.008 638.717L218.514 630.451L215.162 622.125L211.978 613.728L209.173 605.192L205.72 596.904L202.356 588.578L199.435 580.087L196.094 571.757L193.431 563.176L189.937 554.888L187.184 546.334L185.952 537.543L191.753 528.221L187.701 523.532L183.221 522.007L189.424 517.513L196.735 515.326L205.566 515.067L214.349 516.075L223.177 516.738L231.859 518.468L240.66 519.367L249.361 520.985L258.121 522.202L266.968 522.749L275.743 523.805L284.507 525.097L293.361 525.277L302.197 525.21L311.01 524.831L319.778 523.925L328.126 521.202L336.463 516.509L343.744 510.277L350.04 503.015L354.516 494.516L358.171 485.674L360.654 476.441" stroke="black" stroke-width="5" stroke-miterlimit="10"/>
<path d="M373.793 492.936L383.071 493.071L392.479 493.539L401.898 494.134L411.318 493.546L420.431 492.868L417.127 500.82L412.517 508.419L407.906 516.011L402.565 523.007L392.902 525.183L383.336 527.887L373.673 530.045L364.542 524.798L355.452 519.651L360.823 513.801L366.437 507.636L370.479 500.352L373.793 492.936Z" fill="white"/>
<path d="M373.793 492.936L383.071 493.071L392.479 493.539L401.898 494.134L411.318 493.546L420.431 492.868L417.127 500.82L412.517 508.419L407.906 516.011L402.565 523.007L392.902 525.183L383.336 527.887L373.673 530.045L364.542 524.798L355.452 519.651L360.823 513.801L366.437 507.636L370.479 500.352L373.793 492.936Z" stroke="black" stroke-width="5" stroke-miterlimit="10"/>
<path d="M102.782 421.635L101.658 426.197C101.284 427.695 100.909 429.223 101.04 430.759C101.036 430.924 101.086 431.086 101.183 431.22C101.274 431.296 101.382 431.35 101.497 431.377C101.613 431.404 101.734 431.402 101.849 431.373C103.422 431.167 104.67 429.972 105.67 428.751C108.181 425.648 109.867 421.959 110.569 418.028" stroke="black" stroke-width="5" stroke-miterlimit="10"/>
</svg>
